<?xml version="1.0" encoding="utf-8"?>
<!-- Generator: Adobe Illustrator 15.0.0, SVG Export Plug-In . SVG Version: 6.00 Build 0)  -->
<!DOCTYPE svg PUBLIC "-//W3C//DTD SVG 1.1//EN" "http://www.w3.org/Graphics/SVG/1.1/DTD/svg11.dtd">
<svg version="1.1" id="myChart-svg" xmlns="http://www.w3.org/2000/svg" xmlns:xlink="http://www.w3.org/1999/xlink" x="0px"
	 y="0px" width="1132px" height="520px" viewBox="192 -57.5 1132 520" enable-background="new 192 -57.5 1132 520"
	 xml:space="preserve">
<g id="myChart-main">
	<g id="myChart-main-c">
	</g>
	<g id="myChart-objects-bottom">
	</g>
	<g id="myChart-graphset">
		<g id="myChart-graph-id0">
			<g>
				<defs>
					<rect id="SVGID_1_" x="291.93" y="16.207" width="939.378" height="279"/>
				</defs>
				<clipPath id="SVGID_2_">
					<use xlink:href="#SVGID_1_"  overflow="visible"/>
				</clipPath>
				<g id="myChart-graph-id0-plotarea" clip-path="url(#SVGID_2_)">
					<g id="myChart-graph-id0-plotarea-c">
					</g>
				</g>
			</g>
			<g>
				<defs>
					<rect id="SVGID_3_" x="291.93" y="16.207" width="939.378" height="279"/>
				</defs>
				<clipPath id="SVGID_4_">
					<use xlink:href="#SVGID_3_"  overflow="visible"/>
				</clipPath>
				<g id="myChart-graph-id0-scales-bl" clip-path="url(#SVGID_4_)">
					<g id="myChart-graph-id0-scales-bl-0-c">
					</g>
				</g>
			</g>
			<g>
				<defs>
					<rect id="SVGID_5_" x="291.93" y="16.207" width="939.378" height="279"/>
				</defs>
				<clipPath id="SVGID_6_">
					<use xlink:href="#SVGID_5_"  overflow="visible"/>
				</clipPath>
				<g id="myChart-graph-id0-plots-bl-0" clip-path="url(#SVGID_6_)">
					<g id="myChart-graph-id0-plot-0-bl-0-c">
					</g>
				</g>
			</g>
			<g>
				<defs>
					<rect id="SVGID_7_" x="291.93" y="16.207" width="939.378" height="279"/>
				</defs>
				<clipPath id="SVGID_8_">
					<use xlink:href="#SVGID_7_"  overflow="visible"/>
				</clipPath>
				<g id="myChart-graph-id0-plots-bl-1" clip-path="url(#SVGID_8_)">
					<g id="myChart-graph-id0-plot-0-bl-1-c">
						
							<linearGradient id="myChart-graph-id0-plotset-plot-0-node-0-path_1_" gradientUnits="userSpaceOnUse" x1="386.811" y1="168.7925" x2="386.811" y2="107.7925" gradientTransform="matrix(1 0 0 -1 0 401)">
							<stop  offset="0" style="stop-color:#FC60A8"/>
							<stop  offset="1" style="stop-color:#494368"/>
						</linearGradient>
						<path id="myChart-graph-id0-plotset-plot-0-node-0-path" fill="url(#myChart-graph-id0-plotset-plot-0-node-0-path_1_)" d="
							M306.382,242.207c0-6.666,2.095-10,6.284-10l0,0h148.29c4.189,0,6.284,3.334,6.284,10v51H306.382V242.207"/>
						
							<linearGradient id="myChart-graph-id0-plotset-plot-0-node-1-path_1_" gradientUnits="userSpaceOnUse" x1="574.0581" y1="199.7925" x2="574.0581" y2="107.7925" gradientTransform="matrix(1 0 0 -1 0 401)">
							<stop  offset="0" style="stop-color:#FC60A8"/>
							<stop  offset="1" style="stop-color:#494368"/>
						</linearGradient>
						<path id="myChart-graph-id0-plotset-plot-0-node-1-path" fill="url(#myChart-graph-id0-plotset-plot-0-node-1-path_1_)" d="
							M493.629,211.207c0-6.666,2.095-10,6.283-10l0,0h148.291c4.189,0,6.283,3.334,6.283,10v82H493.629V211.207"/>
						
							<linearGradient id="myChart-graph-id0-plotset-plot-0-node-2-path_1_" gradientUnits="userSpaceOnUse" x1="761.6191" y1="260.793" x2="761.6191" y2="107.793" gradientTransform="matrix(1 0 0 -1 0 401)">
							<stop  offset="0" style="stop-color:#FC60A8"/>
							<stop  offset="1" style="stop-color:#494368"/>
						</linearGradient>
						<path id="myChart-graph-id0-plotset-plot-0-node-2-path" fill="url(#myChart-graph-id0-plotset-plot-0-node-2-path_1_)" d="
							M680.877,150.207c0-6.667,2.094-10,6.284-10l0,0h148.918c4.188,0,6.282,3.333,6.282,10v143H680.877V150.207"/>
						
							<linearGradient id="myChart-graph-id0-plotset-plot-0-node-3-path_1_" gradientUnits="userSpaceOnUse" x1="949.1797" y1="321.793" x2="949.1797" y2="107.793" gradientTransform="matrix(1 0 0 -1 0 401)">
							<stop  offset="0" style="stop-color:#FC60A8"/>
							<stop  offset="1" style="stop-color:#494368"/>
						</linearGradient>
						<path id="myChart-graph-id0-plotset-plot-0-node-3-path" fill="url(#myChart-graph-id0-plotset-plot-0-node-3-path_1_)" d="
							M868.752,89.207c0-6.667,2.096-10,6.284-10l0,0h148.29c4.189,0,6.283,3.333,6.283,10v204H868.752V89.207"/>
						
							<linearGradient id="myChart-graph-id0-plotset-plot-0-node-4-path_1_" gradientUnits="userSpaceOnUse" x1="1136.4277" y1="382.793" x2="1136.4277" y2="107.793" gradientTransform="matrix(1 0 0 -1 0 401)">
							<stop  offset="0" style="stop-color:#FC60A8"/>
							<stop  offset="1" style="stop-color:#494368"/>
						</linearGradient>
						<path id="myChart-graph-id0-plotset-plot-0-node-4-path" fill="url(#myChart-graph-id0-plotset-plot-0-node-4-path_1_)" d="
							M1056,28.207c0-6.667,2.094-10,6.283-10l0,0h148.291c4.189,0,6.283,3.333,6.283,10v265H1056V28.207"/>
					</g>
				</g>
			</g>
			<g>
				<defs>
					<rect id="SVGID_9_" x="291.93" y="16.207" width="939.378" height="279"/>
				</defs>
				<clipPath id="SVGID_10_">
					<use xlink:href="#SVGID_9_"  overflow="visible"/>
				</clipPath>
				<g id="myChart-graph-id0-plots-bl-2" clip-path="url(#SVGID_10_)">
					<g id="myChart-graph-id0-plot-0-bl-2-c">
					</g>
				</g>
			</g>
			<g id="myChart-graph-id0-scales-ml-0-c">
			</g>
			<g id="myChart-graph-id0-plots-fl-0">
				<g id="myChart-graph-id0-plot-0-fl-0-c">
				</g>
			</g>
			<g>
				<defs>
					<rect id="SVGID_11_" x="291.93" y="16.207" width="939.378" height="279"/>
				</defs>
				<clipPath id="SVGID_12_">
					<use xlink:href="#SVGID_11_"  overflow="visible"/>
				</clipPath>
				<g id="myChart-graph-id0-scales-fl" clip-path="url(#SVGID_12_)">
					<g id="myChart-graph-id0-scales-fl-0-c">
					</g>
				</g>
			</g>
			<g id="myChart-graph-id0-scroll">
			</g>
			<g id="myChart-graph-id0-plots-vb">
				<g id="myChart-graph-id0-plot-0-vb-c">
				</g>
			</g>
		</g>
	</g>
	<g id="myChart-objects-maps">
	</g>
	<g id="myChart-objects-top">
	</g>
	<g id="myChart-hover">
		<g>
			<defs>
				<rect id="SVGID_13_" x="280.62" y="-1.793" width="962" height="315"/>
			</defs>
			<clipPath id="SVGID_14_">
				<use xlink:href="#SVGID_13_"  overflow="visible"/>
			</clipPath>
			<g id="myChart-graph-id0-hover" clip-path="url(#SVGID_14_)">
				<g id="myChart-graph-id0-hover-c">
				</g>
			</g>
		</g>
	</g>
	<g id="myChart-objects-front">
	</g>
	<g id="myChart-text">
	</g>
	<g id="myChart-legend">
	</g>
	<g id="myChart-tools">
		<g id="myChart-static-c">
		</g>
		<g id="myChart-guide-c">
		</g>
		<g id="myChart-trigger-c">
		</g>
		<g id="myChart-print-c">
		</g>
	</g>
	<g id="myChart-text-top">
	</g>
</g>
<g>
	<path fill="#4B4368" d="M412.431,342.487h14.021l20.982,59.305h-13.438l-3.914-12.19h-21.839l-4.02,12.19h-12.962L412.431,342.487z
		 M411.614,379.382h15.188l-7.492-23.335L411.614,379.382z"/>
	<path fill="#4B4368" d="M473.284,357.938h11.627l6.679,31.583l6.84-31.583h11.95l-12.714,43.854h-11.789l-6.88-31.945l-6.96,31.945
		h-11.909l-12.312-43.854h12.312l6.839,31.463L473.284,357.938z"/>
	<path fill="#4B4368" d="M545.274,358.826c3.059,1.37,5.586,3.532,7.579,6.487c1.796,2.605,2.961,5.628,3.494,9.066
		c0.309,2.015,0.434,4.916,0.377,8.704h-31.94c0.178,4.398,1.707,7.483,4.586,9.253c1.751,1.101,3.859,1.65,6.323,1.65
		c2.612,0,4.734-0.671,6.367-2.012c0.89-0.725,1.677-1.73,2.36-3.018h11.707c-0.309,2.602-1.726,5.244-4.251,7.926
		c-3.929,4.265-9.428,6.397-16.499,6.397c-5.836,0-10.986-1.799-15.447-5.396c-4.461-3.597-6.692-9.449-6.692-17.558
		c0-7.597,2.014-13.422,6.041-17.476s9.255-6.081,15.683-6.081C538.777,356.771,542.215,357.456,545.274,358.826z M528.12,368.731
		c-1.621,1.67-2.639,3.933-3.055,6.788h19.755c-0.209-3.044-1.227-5.354-3.055-6.93s-4.095-2.364-6.801-2.364
		C532.021,366.226,529.74,367.062,528.12,368.731z"/>
	<path fill="#4B4368" d="M571.415,387.791c0.243,2.039,0.768,3.487,1.577,4.345c1.428,1.529,4.069,2.294,7.924,2.294
		c2.264,0,4.063-0.335,5.397-1.006c1.334-0.67,2.001-1.676,2.001-3.018c0-1.288-0.538-2.267-1.612-2.938
		c-1.075-0.67-5.074-1.823-11.996-3.46c-4.983-1.233-8.495-2.776-10.533-4.627c-2.039-1.823-3.058-4.452-3.058-7.886
		c0-4.05,1.592-7.53,4.778-10.44s7.667-4.365,13.447-4.365c5.483,0,9.952,1.093,13.406,3.278c3.454,2.187,5.437,5.962,5.948,11.326
		h-11.467c-0.162-1.475-0.579-2.642-1.25-3.5c-1.265-1.556-3.417-2.334-6.456-2.334c-2.501,0-4.283,0.39-5.346,1.167
		c-1.062,0.778-1.593,1.689-1.593,2.736c0,1.314,0.564,2.267,1.695,2.856c1.129,0.617,5.12,1.677,11.972,3.178
		c4.567,1.073,7.992,2.696,10.272,4.869c2.253,2.199,3.379,4.948,3.379,8.247c0,4.346-1.619,7.894-4.858,10.643
		s-8.244,4.124-15.017,4.124c-6.908,0-12.007-1.456-15.3-4.366c-3.292-2.909-4.938-6.618-4.938-11.124H571.415z"/>
	<path fill="#4B4368" d="M644.922,396.428c-3.702,4.568-9.321,6.854-16.858,6.854s-13.156-2.285-16.858-6.854
		c-3.701-4.569-5.552-10.07-5.552-16.503c0-6.324,1.851-11.805,5.552-16.44c3.702-4.637,9.321-6.955,16.858-6.955
		s13.157,2.318,16.858,6.955c3.701,4.636,5.552,10.116,5.552,16.44C650.474,386.357,648.623,391.858,644.922,396.428z
		 M635.749,390.09c1.796-2.384,2.695-5.771,2.695-10.165c0-4.392-0.899-7.773-2.695-10.144c-1.797-2.37-4.373-3.556-7.725-3.556
		c-3.353,0-5.935,1.186-7.745,3.556s-2.716,5.752-2.716,10.144c0,4.394,0.905,7.781,2.716,10.165s4.392,3.575,7.745,3.575
		C631.376,393.665,633.951,392.474,635.749,390.09z"/>
	<path fill="#4B4368" d="M713.399,358.099c1.877,0.751,3.581,2.065,5.11,3.942c1.233,1.529,2.065,3.407,2.495,5.633
		c0.268,1.476,0.402,3.635,0.402,6.478l-0.081,27.641h-11.749V373.87c0-1.663-0.268-3.031-0.805-4.104
		c-1.02-2.038-2.896-3.059-5.632-3.059c-3.166,0-5.351,1.314-6.558,3.943c-0.618,1.395-0.926,3.071-0.926,5.029v26.111h-11.547
		v-26.111c0-2.602-0.269-4.492-0.805-5.673c-0.965-2.119-2.856-3.179-5.673-3.179c-3.273,0-5.472,1.06-6.599,3.179
		c-0.617,1.207-0.925,3.004-0.925,5.391v26.394H658.48v-43.774h11.145v6.397c1.421-2.279,2.763-3.902,4.023-4.868
		c2.226-1.717,5.11-2.575,8.65-2.575c3.353,0,6.062,0.738,8.127,2.213c1.663,1.368,2.923,3.125,3.782,5.271
		c1.502-2.575,3.366-4.466,5.593-5.673c2.36-1.207,4.989-1.811,7.886-1.811C709.618,356.972,711.522,357.348,713.399,358.099z"/>
	<path fill="#4B4368" d="M760.524,358.826c3.059,1.37,5.586,3.532,7.579,6.487c1.796,2.605,2.961,5.628,3.494,9.066
		c0.309,2.015,0.434,4.916,0.377,8.704h-31.94c0.178,4.398,1.707,7.483,4.586,9.253c1.751,1.101,3.859,1.65,6.323,1.65
		c2.612,0,4.734-0.671,6.367-2.012c0.89-0.725,1.677-1.73,2.36-3.018h11.707c-0.309,2.602-1.726,5.244-4.251,7.926
		c-3.929,4.265-9.428,6.397-16.499,6.397c-5.836,0-10.986-1.799-15.447-5.396c-4.461-3.597-6.692-9.449-6.692-17.558
		c0-7.597,2.014-13.422,6.041-17.476s9.255-6.081,15.683-6.081C754.027,356.771,757.465,357.456,760.524,358.826z M743.371,368.731
		c-1.621,1.67-2.639,3.933-3.055,6.788h19.755c-0.209-3.044-1.227-5.354-3.055-6.93s-4.095-2.364-6.801-2.364
		C747.272,366.226,744.991,367.062,743.371,368.731z"/>
	<path fill="#4B4368" d="M807.257,348.684c4.776-4.882,10.853-7.322,18.229-7.322c9.871,0,17.09,3.272,21.654,9.816
		c2.521,3.676,3.873,7.363,4.06,11.064h-12.392c-0.789-2.843-1.801-4.988-3.035-6.438c-2.207-2.574-5.479-3.862-9.814-3.862
		c-4.415,0-7.896,1.817-10.445,5.452s-3.823,8.777-3.823,15.43s1.345,11.634,4.034,14.946c2.689,3.313,6.107,4.969,10.252,4.969
		c4.25,0,7.491-1.421,9.722-4.265c1.233-1.528,2.257-3.822,3.069-6.88h12.312c-1.062,6.465-3.775,11.722-8.141,15.771
		c-4.365,4.051-9.957,6.075-16.777,6.075c-8.438,0-15.072-2.735-19.901-8.207c-4.829-5.498-7.243-13.036-7.243-22.611
		C799.018,362.27,801.764,354.29,807.257,348.684z"/>
	<path fill="#4B4368" d="M891.689,358.18c2.203,0.94,4.014,2.377,5.429,4.31c1.202,1.638,1.937,3.322,2.204,5.054
		c0.266,1.731,0.4,4.558,0.4,8.477v25.772h-11.709v-26.705c0-2.363-0.399-4.27-1.197-5.72c-1.039-2.04-3.01-3.062-5.911-3.062
		c-3.009,0-5.292,1.015-6.85,3.042s-2.337,4.92-2.337,8.68v23.765h-11.466v-59.104h11.466v20.922
		c1.656-2.548,3.572-4.325,5.749-5.331s4.467-1.509,6.87-1.509C887.036,356.771,889.486,357.241,891.689,358.18z"/>
	<path fill="#4B4368" d="M927.875,375.117c2.135-0.268,3.66-0.604,4.58-1.006c1.648-0.697,2.473-1.783,2.473-3.259
		c0-1.797-0.633-3.038-1.898-3.722c-1.264-0.684-3.119-1.026-5.566-1.026c-2.746,0-4.689,0.671-5.832,2.012
		c-0.814,0.993-1.359,2.334-1.631,4.023h-11.064c0.242-3.835,1.32-6.986,3.232-9.455c3.045-3.862,8.27-5.793,15.68-5.793
		c4.82,0,9.104,0.952,12.85,2.856c3.744,1.904,5.615,5.499,5.615,10.782v20.117c0,1.395,0.027,3.085,0.08,5.069
		c0.082,1.503,0.309,2.521,0.686,3.058c0.375,0.537,0.938,0.979,1.689,1.328v1.689h-12.473c-0.35-0.885-0.59-1.716-0.725-2.494
		c-0.135-0.777-0.24-1.663-0.322-2.655c-1.592,1.717-3.426,3.178-5.504,4.385c-2.48,1.422-5.287,2.133-8.416,2.133
		c-3.994,0-7.293-1.134-9.895-3.399c-2.605-2.267-3.906-5.479-3.906-9.637c0-5.391,2.094-9.294,6.283-11.708
		c2.297-1.313,5.674-2.253,10.133-2.816L927.875,375.117z M934.887,380.469c-0.734,0.456-1.477,0.824-2.225,1.106
		c-0.748,0.281-1.773,0.543-3.078,0.784l-2.609,0.482c-2.447,0.43-4.205,0.953-5.271,1.569c-1.807,1.046-2.709,2.669-2.709,4.868
		c0,1.958,0.551,3.374,1.654,4.245c1.104,0.872,2.445,1.308,4.023,1.308c2.506,0,4.814-0.725,6.926-2.173s3.207-4.09,3.289-7.926
		V380.469z"/>
	<path fill="#4B4368" d="M980.693,356.911c0.146,0.015,0.475,0.034,0.984,0.061v11.748c-0.723-0.08-1.367-0.134-1.93-0.16
		c-0.564-0.026-1.021-0.041-1.369-0.041c-4.613,0-7.711,1.503-9.293,4.507c-0.887,1.689-1.328,4.292-1.328,7.805v20.962h-11.547
		v-43.854h10.943v7.645c1.77-2.924,3.312-4.922,4.627-5.995c2.145-1.797,4.934-2.695,8.369-2.695
		C980.363,356.892,980.545,356.898,980.693,356.911z"/>
	<path fill="#4B4368" d="M983.891,366.507v-8.167h6.115v-12.231h11.348v12.231h7.121v8.167h-7.121v23.175
		c0,1.798,0.227,2.917,0.684,3.359c0.455,0.443,1.85,0.664,4.184,0.664c0.348,0,0.717-0.006,1.107-0.02
		c0.389-0.014,0.77-0.034,1.146-0.061v8.569l-5.432,0.201c-5.418,0.188-9.121-0.75-11.105-2.816
		c-1.287-1.313-1.932-3.339-1.932-6.075v-26.997H983.891z"/>
	<path fill="#4B4368" d="M1027.625,352.707h-11.627v-10.581h11.627V352.707z M1015.998,357.938h11.627v43.854h-11.627V357.938z"/>
	<path fill="#4B4368" d="M1074.094,360.452c2.871,2.374,4.307,6.311,4.307,11.809v29.531h-11.748v-26.675
		c0-2.307-0.307-4.077-0.92-5.311c-1.117-2.253-3.248-3.38-6.389-3.38c-3.861,0-6.512,1.649-7.949,4.949
		c-0.746,1.743-1.117,3.97-1.117,6.679v23.737h-11.467v-43.774h11.104v6.397c1.469-2.253,2.857-3.876,4.168-4.868
		c2.35-1.771,5.328-2.655,8.934-2.655C1067.529,356.892,1071.221,358.078,1074.094,360.452z"/>
	<path fill="#4B4368" d="M1110.758,357.897c2.785,1.153,5.035,3.272,6.75,6.356v-6.316h11.186v41.602
		c0,5.659-0.953,9.924-2.857,12.794c-3.273,4.936-9.549,7.403-18.83,7.403c-5.605,0-10.178-1.1-13.719-3.299
		c-3.541-2.2-5.498-5.485-5.875-9.857h12.473c0.322,1.341,0.846,2.307,1.57,2.896c1.232,1.047,3.312,1.569,6.236,1.569
		c4.129,0,6.893-1.382,8.287-4.144c0.912-1.771,1.369-4.748,1.369-8.933v-2.816c-1.102,1.878-2.281,3.286-3.541,4.225
		c-2.281,1.744-5.244,2.615-8.893,2.615c-5.633,0-10.133-1.978-13.498-5.935c-3.367-3.956-5.049-9.313-5.049-16.073
		c0-6.518,1.621-11.996,4.861-16.436c3.242-4.438,7.836-6.658,13.783-6.658C1107.207,356.892,1109.123,357.228,1110.758,357.897z
		 M1114.662,389.34c1.844-2.024,2.766-5.25,2.766-9.676c0-4.157-0.875-7.323-2.625-9.495c-1.75-2.173-4.094-3.26-7.031-3.26
		c-4.006,0-6.771,1.892-8.293,5.674c-0.803,2.011-1.203,4.492-1.203,7.442c0,2.549,0.428,4.815,1.283,6.8
		c1.549,3.701,4.326,5.553,8.334,5.553C1110.562,392.378,1112.818,391.365,1114.662,389.34z"/>
</g>
</svg>
