<svg width="201" height="66" viewBox="0 0 201 66" fill="none" xmlns="http://www.w3.org/2000/svg">
<g clip-path="url(#clip0)">
<path d="M0 52.1761L15.1487 35.5384H0.910119V28.9172H25.0817V34.876L9.56277 51.8449H25.619V58.4609H0V52.1761Z" fill="#00384A"/>
<path d="M35.4321 36.9883H28.3963V58.4687H35.4321V36.9883Z" fill="#00384A"/>
<path d="M38.5119 36.9883H45.3391V39.9247H45.4225C46.7056 37.7315 49.595 36.3651 52.1689 36.3651C59.3299 36.3651 59.9088 41.5806 59.9088 44.6865V58.4609H52.8678V48.0793C52.8678 45.1403 53.1964 42.1622 49.3499 42.1622C46.7003 42.1622 45.5425 44.3944 45.5425 46.7545V58.4609H38.5014L38.5119 36.9883Z" fill="#00384A"/>
<path d="M83.9709 55.8531C83.9709 59.3684 83.3085 65.9922 73.2503 65.9922C68.2433 65.9922 63.5232 64.8734 62.6965 59.1207H69.7376C69.9045 60.0725 70.2748 60.654 70.9372 60.9852C71.5604 61.3138 72.4288 61.439 73.5032 61.439C76.8569 61.439 77.188 59.092 77.188 56.432V54.4032H77.1046C76.4925 55.3642 75.6488 56.1561 74.6509 56.7061C73.653 57.256 72.5329 57.5465 71.3935 57.5508C64.8949 57.5508 61.9559 52.9115 61.9559 46.8719C61.9559 41.1582 65.3096 36.3572 71.3935 36.3572C73.9596 36.3572 75.905 37.476 77.1463 39.6691H77.2298V36.9883H83.9709V55.8531ZM73.0834 41.7449C69.9775 41.7449 68.9865 44.4779 68.9865 47.1274C68.9865 49.6518 70.1444 52.1761 73.0417 52.1761C76.0198 52.1761 77.3028 49.8604 77.3028 47.1665C77.3028 44.4727 76.2284 41.7449 73.0834 41.7449Z" fill="#00384A"/>
<path d="M109.266 38.3105C108.395 34.9203 106.202 32.4351 101.899 32.4351C95.5652 32.4351 92.9156 38.021 92.9156 43.6903C92.9156 49.3597 95.5652 54.9482 101.899 54.9482C106.489 54.9482 109.016 51.5137 109.431 47.2109H114.482C114.067 54.2858 109.06 59.1702 101.902 59.1702C93.0356 59.1702 87.7444 52.1292 87.7444 43.6903C87.7444 35.2515 93.033 28.2105 101.892 28.2105C108.552 28.2522 113.809 31.9344 114.43 38.3079L109.266 38.3105Z" fill="#00BBF1"/>
<path d="M117.053 28.9172H121.784V39.883H121.867C123.025 37.9376 125.469 36.4928 128.283 36.4928C132.919 36.4928 135.845 38.9781 135.845 43.779V58.4609H131.125V45.0177C131.042 41.6615 129.717 40.2142 126.953 40.2142C123.808 40.2142 121.779 42.6968 121.779 45.8444V58.4609H117.053V28.9172Z" fill="#00BBF1"/>
<path d="M157.25 53.7069C157.25 54.8647 157.511 55.3211 158.369 55.3211C158.756 55.3281 159.144 55.3002 159.526 55.2376V58.5078C158.561 58.8134 157.56 58.994 156.548 59.045C154.645 59.045 153.278 58.3853 152.897 56.4372C151.036 58.2627 148.013 59.045 145.489 59.045C141.64 59.045 138.163 56.977 138.163 52.7863C138.163 47.4482 142.427 46.5772 146.401 46.1234C149.792 45.5028 152.814 45.8626 152.814 43.101C152.814 40.6601 150.29 40.2037 148.381 40.2037C145.731 40.2037 143.869 41.2807 143.663 43.5939H138.946C139.277 38.0914 143.953 36.4746 148.67 36.4746C152.843 36.4746 157.237 38.1723 157.237 42.6837L157.25 53.7069ZM152.532 47.7455C151.085 48.6999 148.808 48.6582 146.738 49.0311C144.712 49.3623 142.889 50.1081 142.889 52.5907C142.889 54.7004 145.58 55.3211 147.236 55.3211C149.304 55.3211 152.532 54.2467 152.532 51.266V47.7455Z" fill="#00BBF1"/>
<path d="M161.79 37.077H166.223V41.2155H166.304C166.841 38.9389 169.658 36.4928 172.563 36.4928C173.158 36.4872 173.753 36.53 174.341 36.6206V41.1712C173.67 41.0625 172.992 40.9937 172.312 40.9652C169.087 40.9652 166.518 43.573 166.518 48.2905V58.4609H161.79V37.077Z" fill="#00BBF1"/>
<path d="M175.713 37.077H179.273V30.654H183.99V37.077H188.254V40.5923H183.99V52.0144C183.99 53.9598 184.154 54.9534 186.267 54.9534C186.933 54.9803 187.601 54.9252 188.254 54.7891V58.44C187.211 58.5235 186.225 58.7008 185.19 58.7008C180.264 58.7008 179.354 56.7971 179.273 53.2375V40.5871H175.713V37.077Z" fill="#00BBF1"/>
<path d="M27.6061 26.2155H30.6911V23.1096H33.2989V26.2155H36.4048V28.8233H33.2963V31.9136H30.6885V28.8207H27.6061V26.2155Z" fill="#00B0E2"/>
<path d="M38.9448 10.999H42.2827V7.6376H45.0939V10.999H48.4502V13.8076H45.0939V17.1456H42.2827V13.8076H38.9448V10.999Z" fill="#CC3300"/>
<path d="M16.2179 4.29441H20.1087V0.382721H23.3893V4.29441H27.301V7.57501H23.3893V11.4632H20.1087V7.57501H16.2179V4.29441Z" fill="#7DA82B"/>
<path d="M192.089 30.7405V35.3252H192.776V30.7405H194.497V30.162H190.368V30.7405H192.089ZM195.084 30.162V35.3252H195.735V31.0298H195.749L197.362 35.3252H197.948L199.56 31.0298H199.575V35.3252H200.226V30.162H199.286L197.651 34.5008L196.024 30.162H195.084Z" fill="#00BBF1"/>
</g>
<defs>
<clipPath id="clip0">
<rect width="200.8" height="65.6251" fill="white" transform="translate(0 0.374908)"/>
</clipPath>
</defs>
</svg>
